<?xml version="1.0" encoding="UTF-8"?>
<svg width="542px" height="22px" viewBox="0 0 542 22" version="1.1" xmlns="http://www.w3.org/2000/svg" xmlns:xlink="http://www.w3.org/1999/xlink">
    <title>waves</title>
    <g id="Page-1" stroke="none" stroke-width="1" fill="none" fill-rule="evenodd">
        <g id="waves">
            <g id="dark" fill="#D38037">
                <rect id="dark-line" x="0" y="20" width="542" height="2"></rect>
                <path d="M0,21 L0,9.45 C0,9.45 16.4434896,0 33.875,0 C51.3065104,0 67.75,9.54552558 67.75,9.54552558 C68.0859553,9.73358058 84.7171406,18.9955256 101.625,18.9955256 C118.703646,18.9955256 135.5,9.45 135.5,9.45 C135.5,9.45 151.94349,0 169.375,0 C186.80651,0 203.25,9.54552558 203.25,9.54552558 C203.585955,9.73358058 220.217141,18.9955256 237.125,18.9955256 C254.203646,18.9955256 271,9.45 271,9.45 L271,9.45 C271.328969,9.261945 287.617805,0 304.875,0 C322.30651,0 338.75,9.54552558 338.75,9.54552558 C339.085955,9.73358058 355.717141,18.9955256 372.625,18.9955256 C389.703646,18.9955256 406.5,9.45 406.5,9.45 C406.5,9.45 422.94349,0 440.375,0 C457.80651,0 474.25,9.54552558 474.25,9.54552558 C474.585955,9.73358058 491.217141,18.9955256 508.125,18.9955256 C525.203646,18.9955256 542,9.45 542,9.45 L542,9.45 L542,21 L0,21 Z" id="wave-dark" fill-rule="nonzero"></path>
            </g>
            <g id="light" transform="translate(0.000000, 1.000000)" fill="#F2994A">
                <rect id="light-line" x="0" y="19" width="542" height="2"></rect>
                <path d="M0,21 L0,9.45 C0,9.45 16.4434896,0 33.875,0 C51.3065104,0 67.75,9.54552558 67.75,9.54552558 C68.0859553,9.73358058 84.7171406,18.9955256 101.625,18.9955256 C118.703646,18.9955256 135.5,9.45 135.5,9.45 C135.5,9.45 151.94349,0 169.375,0 C186.80651,0 203.25,9.54552558 203.25,9.54552558 C203.585955,9.73358058 220.217141,18.9955256 237.125,18.9955256 C254.203646,18.9955256 271,9.45 271,9.45 L271,9.45 C271.328969,9.261945 287.617805,0 304.875,0 C322.30651,0 338.75,9.54552558 338.75,9.54552558 C339.085955,9.73358058 355.717141,18.9955256 372.625,18.9955256 C389.703646,18.9955256 406.5,9.45 406.5,9.45 C406.5,9.45 422.94349,0 440.375,0 C457.80651,0 474.25,9.54552558 474.25,9.54552558 C474.585955,9.73358058 491.217141,18.9955256 508.125,18.9955256 C525.203646,18.9955256 542,9.45 542,9.45 L542,9.45 L542,21 L0,21 Z" id="wave-light" fill-rule="nonzero"></path>
            </g>
        </g>
    </g>
</svg>