<?xml version="1.0" encoding="UTF-8"?>
<svg width="481px" height="21px" viewBox="0 0 481 21" version="1.1" xmlns="http://www.w3.org/2000/svg" xmlns:xlink="http://www.w3.org/1999/xlink">
    <title>waves</title>
    <g id="Page-1" stroke="none" stroke-width="1" fill="none" fill-rule="evenodd">
        <g id="waves" fill-rule="nonzero">
            <path d="M420.875,18.9955256 C390.561979,18.9955256 360.75,9.54552558 360.75,9.54552558 C360.75,9.54552558 331.564323,0 300.625,0 C269.685677,0 240.5,9.45 240.5,9.45 C240.5,9.45 210.688021,18.9955256 180.375,18.9955256 C150.061979,18.9955256 120.25,9.54552558 120.25,9.54552558 C120.25,9.54552558 91.0643229,0 60.125,0 C29.1856771,0 0,9.45 0,9.45 L0,21 L240.5,21 L481,21 L481,9.45 C481,9.45 451.188021,18.9955256 420.875,18.9955256 Z" id="wave-dark" fill="#D38037"></path>
            <path d="M420.875,18.9955256 C390.561979,18.9955256 360.75,9.54552558 360.75,9.54552558 C360.75,9.54552558 331.564323,0 300.625,0 C269.685677,0 240.5,9.45 240.5,9.45 C240.5,9.45 210.688021,18.9955256 180.375,18.9955256 C150.061979,18.9955256 120.25,9.54552558 120.25,9.54552558 C120.25,9.54552558 91.0643229,0 60.125,0 C29.1856771,0 0,9.45 0,9.45 L0,21 L240.5,21 L481,21 L481,9.45 C481,9.45 451.188021,18.9955256 420.875,18.9955256 Z" id="wave-light" fill="#F2994A"></path>
        </g>
    </g>
</svg>